#!OML:ASF I:\Actors\actors\Patient Classification 2\Patient 1\Session 1\actor1.ASF
:FULLY-SPECIFIED
:DEGREES
222
root -0.707873 18.2808 4.91105 2.08931 13.4585 -2.86449
lowerback 20.4128 1.32058 1.97655
upperback 1.23988 2.68318 4.33056
thorax -10.2366 1.30388 2.86783
lowerneck -14.2082 -8.90858 -9.69936
upperneck 22.9851 -11.2417 4.71687
head 10.5527 -5.45969 1.72053
rclavicle 1.2921e-014 -1.98785e-014
rhumerus -12.2777 -6.41205 -50.655
rradius 137.859
rwrist -9.3181
rhand -9.95272 -11.1991
rfingers 7.12502
rthumb 16.0292 -40.556
lclavicle 1.2921e-014 -1.98785e-014
lhumerus 17.865 -40.3806 66.8663
lradius 108.948
lwrist 33.6989
lhand -17.7107 -32.8663
lfingers 7.12502
lthumb 8.54956 -3.05939
rfemur -7.54637 -10.263 16.4182
rtibia 25.3695
rfoot -24.9423 -8.06337
rtoes -17.7966
lfemur -20.6975 -4.63037 -9.93811
ltibia 37.7045
lfoot -19.8096 0.790679
ltoes -55.9327
223
root -0.754435 18.2982 4.91103 2.17798 14.6732 -2.70472
lowerback 20.5535 1.49209 1.79194
upperback 1.20032 2.83656 3.97853
thorax -10.3531 1.3742 2.53696
lowerneck -13.7365 -9.50566 -10.303
upperneck 22.6633 -12.3368 6.14935
head 10.5794 -5.86091 2.1676
rclavicle 0 -7.95139e-015
rhumerus -10.6175 -8.04754 -49.2198
rradius 135.882
rwrist -9.59467
rhand -8.77975 -11.208
rfingers 7.12502
rthumb 17.1584 -40.4704
lclavicle 0 -7.95139e-015
lhumerus 17.6911 -41.386 67.0325
lradius 109.217
lwrist 33.4914
lhand -17.6596 -32.7471
lfingers 7.12502
lthumb 8.59884 -2.94217
rfemur -7.5022 -10.4825 16.4641
rtibia 25.4275
rfoot -25.5457 -8.62204
rtoes -17.1004
lfemur -20.9226 -5.21914 -9.93033
ltibia 37.303
lfoot -19.3641 0.552593
ltoes -56.0366
224
root -0.80606 18.3132 4.90973 2.3011 15.8354 -2.42405
lowerback 20.6968 1.74442 1.55941
upperback 1.20454 3.06872 3.51667
thorax -10.4191 1.48025 2.0879
lowerneck -13.0025 -10.2101 -10.8957
upperneck 21.9566 -13.6487 7.83248
head 10.4851 -6.3518 2.67467
rclavicle -8.74653e-015 -3.4191e-014
rhumerus -8.53125 -9.78725 -47.3879
rradius 133.13
rwrist -9.75377
rhand -7.36387 -11.8253
rfingers 7.12502
rthumb 18.5208 -40.9636
lclavicle -8.74653e-015 -3.4191e-014
lhumerus 17.2733 -42.3742 67.393
lradius 109.854
lwrist 33.8854
lhand -17.1508 -32.4705
lfingers 7.12502
lthumb 9.08983 -2.68639
rfemur -7.60859 -10.7346 16.4033
rtibia 25.7257
rfoot -26.1194 -9.06016
rtoes -16.4127
lfemur -21.1583 -5.75181 -10.0433
ltibia 36.9388
lfoot -19.0177 0.342023
ltoes -56.1059
225
root -0.859481 18.3213 4.90476 2.4797 16.8026 -1.92649
lowerback 20.8278 2.09632 1.16243
upperback 1.2908 3.3753 2.9453
thorax -10.388 1.62611 1.59016
lowerneck -12.1441 -10.9894 -11.4507
upperneck 20.9952 -15.1131 9.74783
head 10.349 -6.9077 3.23052
rclavicle -1.8487e-014 -8.74653e-015
rhumerus -5.84645 -11.4725 -45.0879
rradius 129.105
rwrist -9.708
rhand -6.40372 -12.4868
rfingers 7.12502
rthumb 19.4442 -41.5346
lclavicle -1.8487e-014 -8.74653e-015
lhumerus 16.4784 -43.2602 68.0246
lradius 110.802
lwrist 34.4012
lhand -16.5747 -32.0518
lfingers 7.12502
lthumb 9.64574 -2.2926
rfemur -7.91069 -11.0312 16.0951
rtibia 26.3236
rfoot -26.5799 -9.23962
rtoes -15.7075
lfemur -21.3787 -6.10802 -10.4144
ltibia 36.6604
lfoot -18.7844 0.242289
ltoes -56.2585
226
root -0.912017 18.3213 4.89612 2.68649 17.339 -1.26444
lowerback 20.9077 2.51979 0.678664
upperback 1.53319 3.73569 2.2587
thorax -10.1497 1.79977 1.00436
lowerneck -11.3662 -11.7356 -12.0682
upperneck 19.8104 -16.5579 12.0268
head 10.2357 -7.44496 3.91084
rclavicle 5.76476e-015 -5.56597e-015
rhumerus -2.43413 -12.6213 -42.517
rradius 123.26
rwrist -10.1227
rhand -7.42031 -12.0564
rfingers 7.12502
rthumb 18.4665 -41.1998
lclavicle 5.76476e-015 -5.56597e-015
lhumerus 15.2148 -43.7772 68.9858
lradius 112.112
lwrist 34.7786
lhand -15.7061 -31.5456
lfingers 7.12502
lthumb 10.4837 -1.82699
rfemur -8.43997 -11.2086 15.5857
rtibia 27.2446
rfoot -26.9387 -9.17101
rtoes -14.7102
lfemur -21.5384 -6.18657 -10.9988
ltibia 36.5094
lfoot -18.6213 0.266628
ltoes -56.5048
227
root -0.960065 18.3119 4.88322 2.90191 17.302 -0.543752
lowerback 21.0484 2.97314 0.290872
upperback 1.81709 4.13916 1.38321
thorax -9.87446 1.98598 0.14771
lowerneck -10.7025 -12.3317 -12.4382
upperneck 18.5457 -17.7999 14.3451
head 10.122 -7.88965 4.58536
rclavicle -1.76918e-014 -1.66979e-014
rhumerus 1.27745 -13.3108 -40.2262
rradius 115.933
rwrist -11.3582
rhand -8.95599 -11.6901
rfingers 7.12502
rthumb 16.9888 -40.9672
lclavicle -1.76918e-014 -1.66979e-014
lhumerus 13.1256 -43.8187 70.4265
lradius 113.911
lwrist 35.1879
lhand -13.9217 -30.4443
lfingers 7.12502
lthumb 12.2046 -0.82037
rfemur -9.21133 -11.1462 14.9905
rtibia 28.4489
rfoot -27.18 -8.94856
rtoes -13.7615
lfemur -21.6445 -5.84523 -11.693
ltibia 36.5204
lfoot -18.5596 0.415275
ltoes -56.9122
228
root -1.00348 18.2935 4.86305 3.10916 16.7221 0.247908
lowerback 21.0616 3.42027 0.0408656
upperback 2.22893 4.55047 0.329059
thorax -9.35412 2.17376 -0.965258
lowerneck -10.2147 -12.746 -12.4279
upperneck 17.2828 -18.737 16.3914
head 9.96913 -8.20934 5.14414
rclavicle -1.60022e-014 4.37326e-015
rhumerus 5.1289 -14.1069 -38.6535
rradius 107.596
rwrist -12.2881
rhand -8.98663 -12.2032
rfingers 7.12502
rthumb 16.9593 -41.4828
lclavicle -1.60022e-014 4.37326e-015
lhumerus 10.3284 -43.3494 72.2968
lradius 116.135
lwrist 35.2956
lhand -11.6471 -29.203
lfingers 7.12502
lthumb 14.397 0.277713
rfemur -10.1302 -10.9013 14.2773
rtibia 29.8126
rfoot -27.2439 -8.58372
rtoes -13.7522
lfemur -21.7136 -5.04667 -12.5057
ltibia 36.7235
lfoot -18.6338 0.611679
ltoes -57.2895
229
root -1.03843 18.2656 4.84289 3.22364 15.5244 1.16281
lowerback 21.2937 3.88445 -0.199025
upperback 2.50438 4.98276 -0.838732
thorax -9.08008 2.37019 -2.2259
lowerneck -9.74683 -12.9624 -12.1129
upperneck 16.3733 -19.3305 17.8523
head 9.80962 -8.40643 5.51408
rclavicle 1.33683e-014 -1.98785e-015
rhumerus 9.94999 -14.0215 -36.634
rradius 97.3224
rwrist -13.7089
rhand -8.77074 -13.575
rfingers 7.12502
rthumb 17.1671 -42.8367
lclavicle 1.33683e-014 -1.98785e-015
lhumerus 6.12477 -42.5797 74.9591
lradius 118.858
lwrist 34.9558
lhand -9.89492 -28.9895
lfingers 7.12502
lthumb 16.0848 0.362977
rfemur -11.0315 -10.3424 13.3386
rtibia 31.2309
rfoot -27.1454 -8.00228
rtoes -14.3765
lfemur -21.5989 -3.85277 -13.4973
ltibia 37.1318
lfoot -18.9024 0.886361
ltoes -57.4162
230
root -1.06041 18.2307 4.83097 3.17632 13.7652 1.96719
lowerback 21.5427 4.34389 -0.32447
upperback 2.73645 5.44057 -1.98403
thorax -8.83723 2.57948 -3.53799
lowerneck -9.60909 -13.0017 -11.356
upperneck 15.8631 -19.6053 18.6063
head 9.66964 -8.46113 5.61375
rclavicle -1.99033e-014 -2.91468e-014
rhumerus 15.5614 -13.0104 -34.3444
rradius 85.6444
rwrist -14.6478
rhand -9.00191 -14.4569
rfingers 7.12502
rthumb 16.9446 -43.7378
lclavicle -1.99033e-014 -2.91468e-014
lhumerus 0.838183 -41.4477 78.0686
lradius 122.091
lwrist 34.5352
lhand -9.10316 -29.4991
lfingers 7.12502
lthumb 16.8471 -0.209865
rfemur -11.8892 -9.28472 12.4175
rtibia 32.6507
rfoot -26.9834 -7.15664
rtoes -14.5006
lfemur -21.2881 -2.3744 -14.4092
ltibia 37.7332
lfoot -19.4298 1.27682
ltoes -57.3107
231
root -1.07468 18.1914 4.82476 3.09026 11.7874 2.37483
lowerback 21.4926 4.7491 -0.357449
upperback 3.02974 5.89005 -2.80723
thorax -8.37511 2.79866 -4.51593
lowerneck -10.0436 -12.8844 -10.3058
upperneck 15.612 -19.5829 18.8007
head 9.57562 -8.36189 5.4978
rclavicle 1.2424e-015 -2.48481e-015
rhumerus 20.9018 -11.1757 -31.4635
rradius 73.2011
rwrist -16.1155
rhand -13.6685 -15.0216
rfingers 7.12502
rthumb 12.4488 -44.6309
lclavicle 1.2424e-015 -2.48481e-015
lhumerus -4.91436 -39.8736 81.5666
lradius 125.621
lwrist 34.2183
lhand -8.5689 -29.8427
lfingers 7.12502
lthumb 17.3614 -0.598072
rfemur -12.8572 -7.82879 11.9188
rtibia 34.048
rfoot -26.8256 -6.31665
rtoes -14.3147
lfemur -21.1093 -0.657195 -14.8938
ltibia 38.5115
lfoot -20.0703 1.61284
ltoes -57.3023
232
root -1.08087 18.1462 4.82651 3.02522 9.81774 2.47841
lowerback 21.3219 5.04425 -0.483315
upperback 3.24229 6.20907 -3.2998
thorax -7.98434 2.9628 -5.03435
lowerneck -10.76 -12.5856 -9.14012
upperneck 15.5587 -19.3131 18.8038
head 9.52874 -8.12901 5.32974
rclavicle 7.17613e-014 -2.78299e-015
rhumerus 24.4464 -9.10986 -28.8109
rradius 63.9387
rwrist -15.8834
rhand -16.4772 -14.9411
rfingers 7.12502
rthumb 9.73973 -44.6959
lclavicle 7.17613e-014 -2.78299e-015
lhumerus -11.1658 -37.9026 85.5181
lradius 129.34
lwrist 34.0387
lhand -7.33318 -29.9149
lfingers 7.12502
lthumb 18.5504 -0.779382
rfemur -13.8905 -6.19479 11.762
rtibia 35.4103
rfoot -26.7544 -5.65836
rtoes -14.1555
lfemur -21.1258 1.14418 -15.0622
ltibia 39.421
lfoot -20.6811 1.98013
ltoes -57.7068
